<?xml version="1.0" encoding="UTF-8"?>
<!-- Generated by Pixelmator Pro Trial 3.3.2 -->
<svg width="3000" height="3000" viewBox="0 0 3000 3000" xmlns="http://www.w3.org/2000/svg" xmlns:xlink="http://www.w3.org/1999/xlink">
    <path id="Remplissage" fill="#d9ffd6" stroke="none" visibility="hidden" d="M 0 0 L 3000 0 L 3000 3000 L 0 3000 Z"/>
    <path id="MASQCUINIELA" fill="#1eb100" fill-rule="evenodd" stroke="none" d="M 2428.255859 1685.117188 L 2428.255859 1325.097656 L 2490.494141 1325.097656 L 2490.494141 1622.873047 L 2636.382813 1622.873047 L 2636.382813 1685.117188 L 2428.255859 1685.117188 Z M 1602.658203 1685.111328 L 1602.658203 1622.873047 L 1629.648438 1622.873047 L 1629.648438 1388.021484 L 1602.658203 1388.021484 L 1602.658203 1325.78125 L 1629.648438 1325.78125 L 1629.648438 1325.097656 L 1691.890625 1325.097656 L 1691.890625 1325.78125 L 1718.884766 1325.78125 L 1718.884766 1388.021484 L 1691.890625 1388.021484 L 1691.890625 1622.873047 L 1718.884766 1622.873047 L 1718.884766 1685.111328 L 1602.658203 1685.111328 Z M 2029.097656 1685.111328 L 2029.097656 1622.873047 L 2056.087891 1622.873047 L 2056.087891 1388.021484 L 2029.097656 1388.021484 L 2029.097656 1325.78125 L 2056.087891 1325.78125 L 2056.087891 1325.097656 L 2118.332031 1325.097656 L 2118.332031 1325.78125 L 2145.326172 1325.78125 L 2145.326172 1388.021484 L 2118.332031 1388.021484 L 2118.332031 1622.873047 L 2145.326172 1622.873047 L 2145.326172 1685.111328 L 2029.097656 1685.111328 Z M 2282 1684.8125 C 2223.724365 1684.745605 2176.503174 1637.525635 2176.441406 1579.25 L 2176.441406 1430.363281 C 2176.508057 1372.087646 2223.729736 1324.865723 2282 1324.798828 L 2397.109375 1324.798828 L 2397.109375 1387.042969 L 2282 1387.042969 C 2258.078125 1387.042969 2238.679688 1406.441772 2238.679688 1430.363281 C 2238.679688 1454.290039 2258.078125 1473.6875 2282 1473.6875 L 2397.109375 1473.6875 L 2397.109375 1535.929688 L 2282.003906 1535.929688 C 2267.067871 1535.94519 2252.298584 1532.775146 2238.685547 1526.625 L 2238.685547 1579.25 C 2238.711426 1603.161377 2258.088623 1622.539307 2282 1622.570313 L 2397.109375 1622.570313 L 2397.109375 1684.8125 L 2282 1684.8125 Z M 2667.208984 1684.8125 L 2667.208984 1444.314453 C 2667.28125 1378.334351 2720.749512 1324.870972 2786.724609 1324.798828 C 2852.699707 1324.870972 2906.167969 1378.3396 2906.240234 1444.314453 L 2906.240234 1684.40625 L 2843.998047 1684.40625 L 2843.998047 1556.691406 L 2729.453125 1556.691406 L 2729.453125 1684.8125 L 2667.208984 1684.8125 Z M 1441.185547 1684.410156 C 1423.293335 1684.386719 1405.344727 1680.14502 1388.882813 1671.582031 C 1351.255493 1652.004028 1327.65332 1613.104858 1327.673828 1570.691406 L 1327.673828 1324.392578 L 1389.917969 1324.392578 L 1389.917969 1570.691406 C 1390.149658 1598.956787 1413.12915 1621.746094 1441.394531 1621.746094 C 1469.660034 1621.746094 1492.639526 1598.956787 1492.871094 1570.691406 L 1492.871094 1324.392578 L 1555.115234 1324.392578 L 1555.115234 1622.162109 L 1582.125 1622.162109 L 1582.125 1684.40625 L 1551.001953 1684.40625 C 1533.894409 1684.411255 1517.656982 1676.872437 1506.632813 1663.794922 C 1487.100342 1677.496826 1464.189819 1684.440308 1441.185547 1684.410156 Z M 1769.439453 1684.40625 L 1769.439453 1387.300781 L 1739.703125 1387.300781 L 1739.703125 1325.056641 L 1770.824219 1325.056641 C 1788.482422 1325.046387 1805.270386 1332.72583 1816.814453 1346.091797 C 1836.268677 1331.964111 1859.702881 1324.366821 1883.748047 1324.392578 C 1946.825439 1324.47998 1997.941528 1375.601196 1998.013672 1438.683594 L 1998.013672 1684.40625 L 1935.769531 1684.40625 L 1935.769531 1438.683594 C 1936.078369 1419.888062 1926.223511 1402.390625 1909.996094 1392.900391 C 1893.768555 1383.415039 1873.686523 1383.415039 1857.458984 1392.900391 C 1841.231567 1402.390625 1831.379883 1419.888062 1831.683594 1438.683594 L 1831.683594 1684.40625 L 1769.439453 1684.40625 Z M 1164.042969 1684.251953 C 1143.618896 1684.241211 1123.188232 1679.00293 1104.828125 1668.523438 C 1089.802734 1659.947266 1077.09729 1648.390869 1067.279297 1634.839844 C 1067.105103 1634.599487 1066.932129 1634.358765 1066.759766 1634.117188 C 1052.657593 1614.476685 1044.351563 1590.394043 1044.351563 1564.371094 L 1044.351563 1443.779297 C 1044.351563 1377.660278 1097.948608 1324.0625 1164.0625 1324.0625 C 1230.181519 1324.0625 1283.779297 1377.660278 1283.779297 1443.779297 L 1221.535156 1443.779297 C 1221.535156 1412.039917 1195.80188 1386.306641 1164.0625 1386.306641 C 1132.322998 1386.306641 1106.59375 1412.039917 1106.59375 1443.779297 L 1106.59375 1564.371094 C 1106.593872 1564.457153 1106.595215 1564.542847 1106.595703 1564.628906 L 1149.380859 1564.632813 L 1149.376953 1564.636719 L 1106.757813 1564.644531 C 1106.772949 1576.276245 1110.243286 1587.09729 1116.197266 1596.136719 C 1116.274292 1596.253662 1116.351807 1596.369873 1116.429688 1596.486328 C 1116.438843 1596.499878 1116.447876 1596.513794 1116.457031 1596.527344 C 1126.790649 1611.785278 1144.256592 1621.818481 1164.066406 1621.837891 C 1164.704102 1621.83728 1165.339966 1621.825928 1165.972656 1621.804688 L 1175.767578 1620.636719 C 1176.302246 1620.525635 1176.834106 1620.405151 1177.363281 1620.279297 L 1135.605469 1578.349609 L 1149.376953 1564.636719 L 1164.144531 1564.632813 L 1209.802734 1564.638672 L 1220.474609 1575.349609 C 1221.108398 1572.089844 1221.467163 1568.732056 1221.525391 1565.300781 C 1221.525391 1565.299438 1221.525391 1565.298218 1221.525391 1565.296875 C 1221.527954 1565.077637 1221.529297 1564.85791 1221.529297 1564.638672 L 1221.533203 1564.638672 C 1221.533691 1564.549438 1221.535034 1564.460449 1221.535156 1564.371094 L 1283.779297 1564.371094 C 1283.779297 1565.04187 1283.772705 1565.710693 1283.761719 1566.378906 C 1283.758667 1566.609619 1283.752441 1566.839722 1283.748047 1567.070313 C 1283.744263 1567.239502 1283.740723 1567.409058 1283.736328 1567.578125 C 1283.291992 1586.564941 1278.309204 1605.18335 1269.175781 1621.869141 C 1269.74707 1621.972046 1270.324829 1622.028564 1270.90625 1622.023438 L 1302.033203 1622.007813 L 1302.033203 1684.251953 L 1270.910156 1684.251953 C 1254.126831 1684.205688 1237.880249 1678.323364 1224.957031 1667.613281 C 1206.181396 1678.710327 1185.115356 1684.263062 1164.042969 1684.251953 Z M 1221.529297 1564.638672 L 1209.802734 1564.638672 L 1209.789063 1564.625 L 1221.529297 1564.623047 C 1221.529297 1564.628296 1221.529297 1564.633423 1221.529297 1564.638672 Z M 1209.789063 1564.625 L 1164.144531 1564.632813 L 1149.380859 1564.632813 L 1179.707031 1534.433594 L 1209.789063 1564.625 Z M 2729.453125 1494.449219 L 2843.998047 1494.449219 L 2843.998047 1444.310547 C 2843.998047 1412.679077 2818.355957 1387.037109 2786.724609 1387.037109 C 2755.093262 1387.037109 2729.453125 1412.679077 2729.453125 1444.310547 L 2729.453125 1494.449219 Z M 914.459473 1469.924683 C 856.744812 1450.125488 857.841003 1425.401001 858.201294 1417.274414 C 859.194519 1394.747437 878.535706 1378.396484 904.191833 1378.396484 C 935.087219 1378.396484 947.382629 1393.702637 952.256531 1406.543701 L 1011.53064 1384.068237 C 1005.390564 1367.866455 979.492554 1315 904.197021 1315 C 844.372253 1315 797.367737 1357.76355 794.866455 1414.474609 C 793.245239 1451.07251 809.117554 1500.809814 893.888245 1529.88855 C 951.602844 1549.687622 950.51178 1574.417358 950.151489 1582.543945 C 949.158203 1605.070801 929.817017 1621.416748 904.16095 1621.416748 C 873.260376 1621.416748 860.970215 1606.110596 856.096313 1593.269531 L 796.822266 1615.744995 C 802.962158 1631.946777 828.860168 1684.813232 904.155823 1684.813232 C 963.980591 1684.813232 1010.985107 1642.044434 1013.486328 1585.338501 C 1015.102356 1548.740723 999.240356 1499.008545 914.459473 1469.924683 Z M 644.440918 1324.799194 C 578.465881 1324.871338 524.997192 1378.334717 524.92511 1444.314941 L 524.92511 1684.813232 L 587.168823 1684.813232 L 587.168823 1556.692261 L 701.712891 1556.692261 L 701.712891 1684.406738 L 763.956665 1684.406738 L 763.956665 1444.314941 C 763.884583 1378.339966 710.415894 1324.871338 644.440918 1324.799194 Z M 587.168823 1494.448608 L 587.168823 1444.309937 C 587.168823 1412.678467 612.80957 1387.03772 644.440918 1387.03772 C 676.072327 1387.03772 701.712891 1412.678467 701.712891 1444.309937 L 701.712891 1494.448608 Z M 385.750153 1324.3927 C 356.733246 1324.377197 328.936157 1336.0448 308.622345 1356.765137 C 271.447968 1318.895996 212.276855 1313.620605 168.988281 1344.31543 C 157.500946 1332.030273 141.433075 1325.056519 124.613808 1325.066895 L 93.491943 1325.066895 L 93.491943 1387.310547 L 123.229317 1387.310547 L 123.229317 1684.41687 L 185.473038 1684.41687 L 185.473038 1432.657837 C 185.473038 1407.24353 206.075119 1386.646729 231.484192 1386.646729 C 256.898407 1386.646729 277.495331 1407.24353 277.495331 1432.657837 L 277.495331 1684.41687 L 339.739044 1684.41687 L 339.739044 1432.657837 C 339.739044 1407.24353 360.341125 1386.646729 385.750153 1386.646729 C 411.164368 1386.646729 431.761322 1407.24353 431.761322 1432.657837 L 431.761322 1684.41687 L 494.004974 1684.41687 L 494.004974 1432.657837 C 493.943207 1372.894775 445.513153 1324.4646 385.750153 1324.3927 Z"/>
</svg>
