<?xml version="1.0" encoding="UTF-8"?>
<!-- Generated by Pixelmator Pro Trial 3.3.2 -->
<svg width="2814" height="371" viewBox="0 0 2814 371" xmlns="http://www.w3.org/2000/svg" xmlns:xlink="http://www.w3.org/1999/xlink">
    <path id="Remplissage" fill="#d9ffd6" stroke="none" visibility="hidden" d="M -93 -1315 L 2907 -1315 L 2907 1685 L -93 1685 Z"/>
    <path id="MASQCUINIELA" fill="#1eb100" fill-rule="evenodd" stroke="none" d="M 2335.255859 370.117188 L 2335.255859 10.097656 L 2397.494141 10.097656 L 2397.494141 307.873047 L 2543.382813 307.873047 L 2543.382813 370.117188 L 2335.255859 370.117188 Z M 1509.658203 370.111328 L 1509.658203 307.873047 L 1536.648438 307.873047 L 1536.648438 73.021484 L 1509.658203 73.021484 L 1509.658203 10.78125 L 1536.648438 10.78125 L 1536.648438 10.097656 L 1598.890625 10.097656 L 1598.890625 10.78125 L 1625.884766 10.78125 L 1625.884766 73.021484 L 1598.890625 73.021484 L 1598.890625 307.873047 L 1625.884766 307.873047 L 1625.884766 370.111328 L 1509.658203 370.111328 Z M 1936.097656 370.111328 L 1936.097656 307.873047 L 1963.087891 307.873047 L 1963.087891 73.021484 L 1936.097656 73.021484 L 1936.097656 10.78125 L 1963.087891 10.78125 L 1963.087891 10.097656 L 2025.332031 10.097656 L 2025.332031 10.78125 L 2052.326172 10.78125 L 2052.326172 73.021484 L 2025.332031 73.021484 L 2025.332031 307.873047 L 2052.326172 307.873047 L 2052.326172 370.111328 L 1936.097656 370.111328 Z M 2189 369.8125 C 2130.724365 369.745605 2083.503174 322.525635 2083.441406 264.25 L 2083.441406 115.363281 C 2083.508057 57.087646 2130.729736 9.865723 2189 9.798828 L 2304.109375 9.798828 L 2304.109375 72.042969 L 2189 72.042969 C 2165.078125 72.042969 2145.679688 91.441772 2145.679688 115.363281 C 2145.679688 139.290039 2165.078125 158.6875 2189 158.6875 L 2304.109375 158.6875 L 2304.109375 220.929688 L 2189.003906 220.929688 C 2174.067871 220.94519 2159.298584 217.775146 2145.685547 211.625 L 2145.685547 264.25 C 2145.711426 288.161377 2165.088623 307.539307 2189 307.570313 L 2304.109375 307.570313 L 2304.109375 369.8125 L 2189 369.8125 Z M 2574.208984 369.8125 L 2574.208984 129.314453 C 2574.28125 63.334351 2627.749512 9.870972 2693.724609 9.798828 C 2759.699707 9.870972 2813.167969 63.3396 2813.240234 129.314453 L 2813.240234 369.40625 L 2750.998047 369.40625 L 2750.998047 241.691406 L 2636.453125 241.691406 L 2636.453125 369.8125 L 2574.208984 369.8125 Z M 1348.185547 369.410156 C 1330.293335 369.386719 1312.344727 365.14502 1295.882813 356.582031 C 1258.255493 337.004028 1234.65332 298.104858 1234.673828 255.691406 L 1234.673828 9.392578 L 1296.917969 9.392578 L 1296.917969 255.691406 C 1297.149658 283.956787 1320.12915 306.746094 1348.394531 306.746094 C 1376.660034 306.746094 1399.639526 283.956787 1399.871094 255.691406 L 1399.871094 9.392578 L 1462.115234 9.392578 L 1462.115234 307.162109 L 1489.125 307.162109 L 1489.125 369.40625 L 1458.001953 369.40625 C 1440.894409 369.411255 1424.656982 361.872437 1413.632813 348.794922 C 1394.100342 362.496826 1371.189819 369.440308 1348.185547 369.410156 Z M 1676.439453 369.40625 L 1676.439453 72.300781 L 1646.703125 72.300781 L 1646.703125 10.056641 L 1677.824219 10.056641 C 1695.482422 10.046387 1712.270386 17.72583 1723.814453 31.091797 C 1743.268677 16.964111 1766.702881 9.366821 1790.748047 9.392578 C 1853.825439 9.47998 1904.941528 60.601196 1905.013672 123.683594 L 1905.013672 369.40625 L 1842.769531 369.40625 L 1842.769531 123.683594 C 1843.078369 104.888062 1833.223511 87.390625 1816.996094 77.900391 C 1800.768555 68.415039 1780.686523 68.415039 1764.458984 77.900391 C 1748.231567 87.390625 1738.379883 104.888062 1738.683594 123.683594 L 1738.683594 369.40625 L 1676.439453 369.40625 Z M 1071.042969 369.251953 C 1050.618896 369.241211 1030.188232 364.00293 1011.828125 353.523438 C 996.802734 344.947266 984.09729 333.390869 974.279297 319.839844 C 974.105103 319.599487 973.932129 319.358765 973.759766 319.117188 C 959.657593 299.476685 951.351563 275.394043 951.351563 249.371094 L 951.351563 128.779297 C 951.351563 62.660278 1004.948608 9.0625 1071.0625 9.0625 C 1137.181519 9.0625 1190.779297 62.660278 1190.779297 128.779297 L 1128.535156 128.779297 C 1128.535156 97.039917 1102.80188 71.306641 1071.0625 71.306641 C 1039.322998 71.306641 1013.59375 97.039917 1013.59375 128.779297 L 1013.59375 249.371094 C 1013.593872 249.457153 1013.595215 249.542847 1013.595703 249.628906 L 1056.380859 249.632813 L 1056.376953 249.636719 L 1013.757813 249.644531 C 1013.772949 261.276245 1017.243286 272.09729 1023.197266 281.136719 C 1023.274292 281.253662 1023.351807 281.369873 1023.429688 281.486328 C 1023.438843 281.499878 1023.447876 281.513794 1023.457031 281.527344 C 1033.790649 296.785278 1051.256592 306.818481 1071.066406 306.837891 C 1071.704102 306.83728 1072.339966 306.825928 1072.972656 306.804688 L 1082.767578 305.636719 C 1083.302246 305.525635 1083.834106 305.405151 1084.363281 305.279297 L 1042.605469 263.349609 L 1056.376953 249.636719 L 1071.144531 249.632813 L 1116.802734 249.638672 L 1127.474609 260.349609 C 1128.108398 257.089844 1128.467163 253.732056 1128.525391 250.300781 C 1128.525391 250.299438 1128.525391 250.298218 1128.525391 250.296875 C 1128.527954 250.077637 1128.529297 249.85791 1128.529297 249.638672 L 1128.533203 249.638672 C 1128.533691 249.549438 1128.535034 249.460449 1128.535156 249.371094 L 1190.779297 249.371094 C 1190.779297 250.04187 1190.772705 250.710693 1190.761719 251.378906 C 1190.758667 251.609619 1190.752441 251.839722 1190.748047 252.070313 C 1190.744263 252.239502 1190.740723 252.409058 1190.736328 252.578125 C 1190.291992 271.564941 1185.309204 290.18335 1176.175781 306.869141 C 1176.74707 306.972046 1177.324829 307.028564 1177.90625 307.023438 L 1209.033203 307.007813 L 1209.033203 369.251953 L 1177.910156 369.251953 C 1161.126831 369.205688 1144.880249 363.323364 1131.957031 352.613281 C 1113.181396 363.710327 1092.115356 369.263062 1071.042969 369.251953 Z M 1128.529297 249.638672 L 1116.802734 249.638672 L 1116.789063 249.625 L 1128.529297 249.623047 C 1128.529297 249.628296 1128.529297 249.633423 1128.529297 249.638672 Z M 1116.789063 249.625 L 1071.144531 249.632813 L 1056.380859 249.632813 L 1086.707031 219.433594 L 1116.789063 249.625 Z M 2636.453125 179.449219 L 2750.998047 179.449219 L 2750.998047 129.310547 C 2750.998047 97.679077 2725.355957 72.037109 2693.724609 72.037109 C 2662.093262 72.037109 2636.453125 97.679077 2636.453125 129.310547 L 2636.453125 179.449219 Z M 821.459473 154.924683 C 763.744812 135.125488 764.841003 110.401001 765.201294 102.274414 C 766.194519 79.747437 785.535706 63.396484 811.191833 63.396484 C 842.087219 63.396484 854.382629 78.702637 859.256531 91.543701 L 918.53064 69.068237 C 912.390564 52.866455 886.492554 0 811.197021 0 C 751.372253 0 704.367737 42.76355 701.866455 99.474609 C 700.245239 136.07251 716.117554 185.809814 800.888245 214.88855 C 858.602844 234.687622 857.51178 259.417358 857.151489 267.543945 C 856.158203 290.070801 836.817017 306.416748 811.16095 306.416748 C 780.260376 306.416748 767.970215 291.110596 763.096313 278.269531 L 703.822266 300.744995 C 709.962158 316.946777 735.860168 369.813232 811.155823 369.813232 C 870.980591 369.813232 917.985107 327.044434 920.486328 270.338501 C 922.102356 233.740723 906.240356 184.008545 821.459473 154.924683 Z M 551.440918 9.799194 C 485.465881 9.871338 431.997192 63.334717 431.92511 129.314941 L 431.92511 369.813232 L 494.168823 369.813232 L 494.168823 241.692261 L 608.712891 241.692261 L 608.712891 369.406738 L 670.956665 369.406738 L 670.956665 129.314941 C 670.884583 63.339966 617.415894 9.871338 551.440918 9.799194 Z M 494.168823 179.448608 L 494.168823 129.309937 C 494.168823 97.678467 519.80957 72.03772 551.440918 72.03772 C 583.072327 72.03772 608.712891 97.678467 608.712891 129.309937 L 608.712891 179.448608 Z M 292.750153 9.3927 C 263.733246 9.377197 235.936157 21.0448 215.622345 41.765137 C 178.447968 3.895996 119.276855 -1.379395 75.988281 29.31543 C 64.500946 17.030273 48.433075 10.056519 31.613808 10.066895 L 0.491943 10.066895 L 0.491943 72.310547 L 30.229317 72.310547 L 30.229317 369.41687 L 92.473038 369.41687 L 92.473038 117.657837 C 92.473038 92.24353 113.075119 71.646729 138.484192 71.646729 C 163.898407 71.646729 184.495331 92.24353 184.495331 117.657837 L 184.495331 369.41687 L 246.739044 369.41687 L 246.739044 117.657837 C 246.739044 92.24353 267.341125 71.646729 292.750153 71.646729 C 318.164368 71.646729 338.761322 92.24353 338.761322 117.657837 L 338.761322 369.41687 L 401.004974 369.41687 L 401.004974 117.657837 C 400.943207 57.894775 352.513153 9.4646 292.750153 9.3927 Z"/>
</svg>
